<?xml version="1.0" encoding="utf-8"?>
<!-- Generator: Adobe Illustrator 16.0.0, SVG Export Plug-In . SVG Version: 6.00 Build 0)  -->
<!DOCTYPE svg PUBLIC "-//W3C//DTD SVG 1.1//EN" "http://www.w3.org/Graphics/SVG/1.1/DTD/svg11.dtd">
<svg version="1.1"
	 id="svg2" xmlns:dc="http://purl.org/dc/elements/1.1/" xmlns:cc="http://creativecommons.org/ns#" xmlns:rdf="http://www.w3.org/1999/02/22-rdf-syntax-ns#" xmlns:svg="http://www.w3.org/2000/svg"
	 xmlns="http://www.w3.org/2000/svg" xmlns:xlink="http://www.w3.org/1999/xlink" x="0px" y="0px" width="506.348px"
	 height="508.118px" viewBox="0 0 506.348 508.118" enable-background="new 0 0 506.348 508.118" xml:space="preserve">
	 <style>
	 	@font-face {
		    font-family:'Baron Neue';
		    src:url('../css/fonts/Baron Neue.woff'),
		         url('../css/fonts/Baron Neue.ttf');
		}
	 	path,text { cursor:pointer; }
	 	.estado { fill:#b5b5b5; stroke:#FFFFFF; }
	 	.temParceiros { fill:#ff8900; }
	 	.legenda { fill:#0085c3; font:700 16px/1em 'Baron Neue',verdana; }
	</style>
	<script type="text/javascript">
	SVGElement.prototype.addClass = function (className) {
		this.setAttribute('class', this.getAttribute('class') + ' ' + className);
	}
	SVGElement.prototype.hasClass = function (className) {
        return new RegExp('(\\s|^)' + className + '(\\s|$)').test(this.getAttribute('class'));
	};
	</script>
	<g id="pa" transform="translate(-36.05404,-190.90844)">
		<path id="path3991-7" class="estado" data-estado="pa" d="
			M282.848,227.479l-1.538-0.769l-1.153,0.769l-0.641,1.666l-1.409,0.256l-1.153-0.641l-2.691-0.384l-2.05-0.384h-2.563l-0.641-0.513l-0.897,1.153l-1.409,1.794
			c0,0,0.513,1.41,1.025,1.41c0.512,0,1.152,1.281,1.537,1.794s0.128,2.178,0.128,2.178l-2.178,0.128l-2.307-0.256l-1.281-0.897
			l-4.357,0.769l-1.537,1.025l-1.153-0.769l-1.281-0.897l-2.051-0.256l-2.05,0.385l-1.153,1.794l-0.641,1.025l-2.179,1.025
			l-1.153,0.513l-1.153,0.769l-7.688,0.128l-0.128,2.819l-1.153,2.05l-1.666,1.281l-2.05,0.513l-1.409,0.128l-0.385,12.814
			l0.385,3.46l0.512,2.435l1.025,2.819c0,0,1.666,2.819,2.179,2.819s2.563,1.153,2.563,1.153s1.153,3.588,1.666,4.1
			c0.513,0.513,1.538,3.46,1.538,3.46s1.281,1.666,1.794,2.05c0.512,0.384,1.794,0.128,2.946,0.384
			c1.153,0.256,5.126-0.128,5.639,0.256s2.435,1.41,2.435,1.41l2.947,2.178l-19.35,55.613l-1.409,1.409c0,0,0,1.922,0.513,2.05
			c0.513,0.128,2.819,2.691,2.819,2.691l2.05,2.307c0,0,1.025,2.05,1.281,2.563c0.257,0.512,1.794,2.435,1.794,2.435
			s1.538,1.922,2.051,2.435s1.922,2.178,2.307,2.819c0.384,0.641,0.769,1.153,0.896,2.05s-1.025,3.844-1.025,3.844
			s-0.128,1.153-0.128,1.922c0,0.769,0.385,2.563,0.385,2.563l9.866,10.636l78.55,6.407l7.817-0.897l1.665-0.896l1.025-3.716
			l0.256-3.588l2.819-2.307c0,0,3.204-2.435,3.588-2.947c0.385-0.512,1.666-2.435,1.666-2.435s1.025-1.666,1.666-2.691
			c0.641-1.025,0.769-2.05,0.896-2.563c0.129-0.513,0.385-2.05,0.385-2.947c0-0.897-0.256-1.666-0.513-2.819
			c-0.256-1.153-0.513-2.307-0.513-2.307l-0.641-1.538l1.666-6.407l1.922-1.922l2.179-0.512l2.307-1.153l1.537-3.204l1.666-2.05
			l2.179-2.435c0,0,0.641-3.204,0.641-3.716c0-0.512-0.128-3.459-0.128-3.459l-1.538-1.666l-2.179-1.025l-1.537-0.128l-0.641-0.513
			l0.769-3.972l3.075-2.563l3.46-2.307l3.973-3.204l2.563-2.947l4.741-3.716l2.05-1.794l4.101-5.382l1.666-2.05l1.025-5.254
			c0,0,0.769-2.563,1.024-3.075c0.257-0.513,0-2.819,0-2.819l1.666-3.204l1.153-2.691l-0.128-3.716l1.666-3.075v-1.794
			c0,0-1.794-1.153-2.307-1.282c-0.513-0.128-2.819-1.409-2.819-1.409l-2.819-0.128c0,0-0.641-1.153-2.05-1.153s-3.973,0-3.973,0
			l-2.818-0.256l-3.332-1.282l-1.538-0.256l-2.435,1.153l-1.281,1.282l-1.666,0.769c0,0-1.665,0.897-1.537,1.666
			c0.128,0.769-1.025,2.691-1.025,2.691l-1.794,0.512l0.513,3.332l0.896,2.563l-3.203,3.076l-2.179,1.922h-3.844l-1.025-0.384
			l-1.666,0.384l-1.281,2.691l-2.307,2.05l0.513-3.588l1.666-4.101l-0.513-0.641l-1.409,0.641l-2.307,1.025h-2.435l-1.538-1.538
			c0,0,1.538-1.282,2.307-1.282c0.77,0,3.204-0.897,3.204-0.897s2.818-1.409,3.716-1.666c0.896-0.256,3.588-0.896,3.588-0.896
			l2.69-0.897l1.666-3.332c0,0,0.128-1.025,1.41-2.178c1.281-1.153,2.178-1.538,2.178-2.819c0-1.282,0-2.691-0.384-3.46
			c-0.385-0.769-1.282-2.563-1.282-2.563s-1.153-1.153-1.665-1.153c-0.513,0-2.179,0-2.819,0s-2.819-0.641-2.819-0.641
			s-1.281-1.025-2.178-0.897c-0.897,0.128-2.051-0.128-2.436,0.513c-0.384,0.641-2.178,1.025-2.178,1.025s-2.179,1.025-2.819,0.641
			s-1.922-0.641-1.922-0.641l-2.691-0.512l-1.794-1.282l-2.947,0.769l-2.435,2.435l-1.794,3.332l-0.513,3.844l0.129,3.076
			l1.281,2.178l2.563,3.716l3.203,0.512l2.563,0.769l1.922,1.794l-2.179,0.897l-2.05,2.05c0,0-1.153,2.05-1.666,0.897
			c-0.513-1.153-2.05-3.332-2.05-3.332s-1.153-1.41-1.666-2.051c-0.513-0.641-1.794-1.281-1.794-2.435s0-2.05,0-2.05l-2.307-2.179
			l-1.41-0.256l-3.844,1.153c0,0-0.769,0.384-1.538,1.41c-0.769,1.025-3.588,3.204-3.588,3.204s-1.794,0.256-2.307,0
			c-0.512-0.256-1.665-1.922-1.665-1.922s-1.41-0.641-0.385-1.153c1.025-0.512,2.307-0.769,2.307-0.769s0.513,0.128,0.513-1.153
			s0-1.666,0-1.666l-2.051-0.769c0,0-0.769-0.256-1.281-0.513s-1.794-1.281-2.05-2.435c-0.257-1.153-0.641-3.46-0.641-3.46
			s0-0.256-0.641-2.05s-1.538-3.332-1.538-3.332l-1.922-0.897l-2.051-0.769c0,0-1.409-0.128-1.409-1.794
			c0-1.666-0.128-3.076-0.128-3.076s-0.897-2.563-0.897-3.332c0-0.769-0.256-2.05-0.256-2.05l-1.538-1.922
			c0,0-0.256,0.769-0.769-0.897c-0.513-1.666-1.025-2.691-1.025-2.691s-1.024-1.281-2.05-2.05s-2.691-1.41-2.691-1.41l-1.024-0.384
			l-2.819-2.819c0,0-1.666-1.025-2.307-1.025s-3.46-0.897-3.973-1.153c-0.512-0.256-3.075-0.513-3.075-1.025
			c0-0.513-1.153-2.307-1.153-2.307v-2.05l1.153-1.794L282.848,227.479z"/>
	</g>
	<g id="ap" transform="translate(-36.05404,-190.90844)">
		<path id="path3994" class="estado" data-estado="ap" d="
			M283.316,228.19l-0.896,2.05l0.128,2.05c0,0,0.256,1.538,0.897,1.794c0.641,0.256,2.435,0.897,2.435,0.897l3.588,1.41l2.563,1.281l2.69,1.41
			c0,0,1.025,0.641,1.666,1.409c0.641,0.769,2.435,1.666,2.947,2.05c0.513,0.385,1.41,1.666,1.41,1.666l2.947,4.485l1.922,3.588
			c0,0,0.128,2.178,0.256,3.075s0.897,3.204,0.897,3.204s1.281,1.153,1.794,1.538s2.435,1.794,2.435,1.794l3.331,5.382l0.513,3.332
			l2.563,2.947l2.818,0.769h2.435c0,0,0.257-2.947,0.897-3.844s4.229-6.279,4.229-6.279s3.075-2.563,3.46-2.691
			c0.384-0.128,1.537-2.435,2.563-3.332s2.435-3.844,2.435-3.844l6.023-5.254c0,0,2.178-3.075,2.69-3.46
			c0.513-0.384,3.845-2.819,3.845-2.819s0.384-2.691-0.257-3.332s-2.819-3.204-2.819-3.204s-1.409-1.538-2.05-1.538
			s-2.563,0.513-3.588-0.128c-1.025-0.641-2.563-1.794-2.563-1.794s-1.666-2.05-1.794-2.563c-0.129-0.513-1.538-3.46-1.538-3.46
			l-0.513-3.332l-0.641-3.075c0,0-0.897-2.05-0.897-3.075c0-1.025,0.257-4.229,0.257-4.229s-0.641-1.666-0.897-2.947
			c-0.256-1.282,0-1.666-0.384-2.691c-0.385-1.025-1.153-2.05-1.794-2.563s-1.153-1.153-1.666-1.666s-1.922-2.819-1.922-2.819
			s-0.897,0.769-0.897,1.281s-0.513,4.229-0.513,4.229l0.128,1.666l-2.306,3.075l-1.794,1.538l-2.819,2.179l-0.513,3.459
			l-1.794,3.076l-1.538,2.05c0,0-0.256-1.794-0.641,0.513c-0.384,2.307-1.794,3.588-1.794,4.101s-1.281,3.972-1.281,3.972
			l-1.922,0.769l-2.435-1.153c0,0-1.281-0.641-1.922-1.153s-1.923-0.897-1.923-0.897s-1.281,0.128-1.281,0.641
			c0,0.513-1.666,1.794-1.666,1.794l-2.435,1.41c0,0-1.024,0.641-1.922,0c-0.896-0.641-2.69-2.435-2.69-2.435
			s-1.794-1.538-2.691-2.179c-0.896-0.641-2.69-0.512-2.69-0.512h-1.282L283.316,228.19z"/>
	</g>
	<g id="to" transform="translate(-36.05404,-190.90844)">
		<path id="path3951" class="estado" data-estado="to" d="
			M345.856,384.11l0.179-4.459l1.783-2.319l3.032-2.497l2.498-2.319l3.389-5.529c0,0-0.535-0.892,0.179-2.319c0.713-1.427,0.713-1.249,0.713-2.676
			c0-1.427-0.535-2.854-0.535-2.854l-1.248-2.854l0.892-3.567l0.535-3.567l1.783-1.605l4.103-0.713c0,0,0.357-0.713,1.07-1.962
			c0.714-1.249,1.962-2.854,1.962-2.854l1.784-1.962c0,0,0.892-0.535,1.248-1.605c0.357-1.07,0.535-3.389,0.535-3.389l0.357-2.854
			v-1.962l-1.784-0.357l-1.962-1.605l-0.179-1.249l2.676-1.427l3.211,0.535l4.28,2.497l2.676,0.713l-0.356,19.442l-1.605,1.784
			c0,0-2.141,1.07-1.249,1.249c0.893,0.178,1.605,1.605,1.605,1.605l0.535,1.962l-1.427,1.07l0.356,1.962l3.567,2.675l4.994,2.319
			l2.141-0.357l1.962-0.892h1.784v1.784l-0.357,1.784l-1.962,1.962l-2.497,3.746l-1.427,3.924l-0.714,1.427
			c0,0,2.319,0.714,2.676,1.249c0.356,0.535,1.427,2.498,1.427,2.498l1.07,0.713l1.07,1.962l-1.07,1.605l0.535,2.14l2.319,3.211
			l2.497,1.427l2.854,2.854l-0.714,1.784l-3.566,4.816l-2.854,4.994l0.892,1.962c0,0,0.714,1.605,1.784,1.962
			c1.07,0.356,0.892-0.535,1.248,0.356c0.357,0.892,0.357,3.567,0.357,3.567s-1.07,2.141-1.07,3.032
			c0,0.892-0.179,2.141,0.713,2.497c0.893,0.357,1.249,1.962,1.249,1.962l-0.892,1.605l-0.535,3.389l-3.032,0.178l-2.676,1.07
			l-1.783,0.713l-1.605,1.249l-2.497,1.249l-2.497,1.427l-2.141-0.892l-1.605-1.249l-1.605-1.249l-0.179,3.567h-3.389l-2.318-1.605
			l-1.962-0.178l-1.784,0.713l-1.962-1.784l-1.784-1.962l-1.427-1.784l-0.535-0.178l-0.892,0.892h-1.605l-0.713-0.892l-0.535,0.713
			l-1.428,3.746l-1.604,1.249l-8.563-5.529l-1.783-1.605l-0.179-1.962l-1.07-1.784l-1.248,1.605l-1.249,3.032l-1.605,0.178
			l-0.892-7.492l0.179-9.453l-0.356-4.103l2.14-1.962l1.07-3.567l0.535-5.351l1.784-4.103l1.427-1.605l1.783-1.427L345.856,384.11z
			"/>
	</g>
	<g id="ac" transform="translate(-36.05404,-190.90844)">
		<path id="path3013" class="estado" data-estado="ac" d="
			M116.636,399.511l0.121-1.083l0.962-1.202l1.082-0.962l0.842-0.962h2.044l1.322-0.481l0.602-0.241h2.405l1.322-0.722c0,0,0.24-1.442,0.24-1.803
			s1.684-1.924,1.684-1.924l0.722-1.202l-0.842-1.203l-40.763-19.119l-4.449-3.006l-1.924-0.241l-5.05-0.841l-4.931-0.962
			l-4.448-0.962c0,0-4.689-0.841-5.291-1.082s-4.209-1.203-4.209-1.203l-6.733-2.525l-3.848-2.044l-2.525-0.48l-3.126-1.804
			l-2.285-1.563l-1.563,1.563l-0.962,1.202l-0.481,1.804l0.361,2.525l1.924,2.645v2.766c0,0,0,1.804,0.48,2.285
			c0.481,0.481,2.165,2.285,2.165,2.285s1.442,1.684,1.924,2.044c0.48,0.361,2.404,2.044,2.404,2.044l1.563,1.202l2.766,1.804
			l-0.12,1.203l-1.804,1.082l-1.924,1.563l0.962,0.842l1.804-0.36l2.044,0.36l1.082,0.241l4.689,0.24l1.323,1.443v1.443v4.81
			l4.088-0.241l1.684,0.481l0.601,0.481c0,0,0.722-0.121,1.203,0.12c0.48,0.24,1.563,0.24,2.404,0.24s2.285-0.601,2.285-0.601
			l1.563-1.203l1.684-0.481l1.082-1.202l1.083-1.684l1.683-2.044l1.684-0.962l1.563-0.361l0.962,0.962l-0.36,2.164l0.12,3.126
			l-1.323,2.525l-0.24,2.405l0.12,2.405l-0.842,1.563l-1.322,2.646c0,0,1.684,1.323,2.164,1.323c0.481,0,1.563,0.601,2.044,1.082
			c0.481,0.481,1.924,2.285,1.924,2.285l2.165,0.602l0.601-1.684l2.285-0.601l1.684-0.241l2.886-0.24l1.442-0.602l1.443-0.12
			l1.804,0.12l0.601,1.203l1.323,1.203l2.044,0.36c0,0,1.443,0.12,2.164,0.12c0.722,0,2.165-0.601,2.165-0.601l1.202-1.323
			l1.082-1.202l0.722-1.203l0.722-1.563l0.842-0.361l0.601-0.361v0.361l0.12,0.12l-0.48-0.841l0.24,0.12"/>
		<path id="path3015" class="estado" data-estado="ac" d="M114.472,399.992l-0.842-0.722l-0.601-0.721l-1.563-0.962"/>
	</g>
	<g id="am" transform="translate(-36.05404,-190.90844)">
		<path id="path3008" class="estado" data-estado="am" d="
			M176.533,230.623l2.455,3.102l1.034,4.265l4.781,7.237l0.388,2.197l0.13,2.714l0.129,5.169l-0.259,4.523l0.13,3.748l0.904,3.36l0.129,1.938l3.103,4.006
			l3.489,3.102l1.809-0.646l1.163-1.81l0.775-1.938l1.163-2.455l2.456-2.714l1.163-0.646l2.326,0.388l2.326,0.775l1.551,2.326
			l3.102,0.905l2.197-1.292l0.129-3.102l0.129-1.292l1.81-0.905l1.81-1.938l0.388-2.068l0.517-2.068l2.067-1.163l1.938-0.129h1.938
			h1.551l1.163,1.292l2.844,0.388l1.68-0.646l-0.129,3.36l0.775,2.843l0.388,2.973l1.551,2.972l1.81,1.292l2.067,1.421l0.646,1.938
			l0.904,1.292l1.422,2.584l0.775,1.809l0.904,1.68l10.08,0.259l2.455,1.809l2.327,2.326l-19.773,55.441l-1.292,1.938l1.034,3.102
			l1.68,1.551l2.585,2.326l1.033,2.843l-1.033,1.163l-0.388,3.748l-1.293,5.428v4.136l-1.809,4.782l-4.007,0.775l-2.973-0.775
			l-1.809,2.197l-30.241-0.517l-3.747-1.163l-1.422-0.775l-1.938-0.646l-1.422-0.388l-1.551-0.775l-2.197-1.163l-1.68-1.421
			l-1.68-1.68l-1.681-1.68l-1.033-1.421l-1.034-0.646l-5.944,0.388l-0.646,0.388l-1.551,1.292l-1.422,1.809l-0.646,1.68
			l-4.136-0.129v1.68l-1.034,2.197l-0.517,1.292l-6.074,3.619l-1.422,0.517l-1.163-0.129l-2.196,1.163l-1.034,1.551l-0.517,1.292
			l-1.81,1.292l-1.551,0.258l-1.293,1.292l-2.843,0.129l-0.388,0.259l-3.36-2.585l-4.522-0.646l-1.293,1.034l-1.163,1.81
			l-1.292,1.551l-1.422,1.68l-0.646,0.775l-42.776-19.772l-2.844-1.81l-3.489-0.517l-4.265-0.905l-3.877-1.034l-5.557-0.646
			l-3.748-1.292l-4.652-1.163l-3.231-1.163l-4.135-1.81l-3.231-1.292l-4.91-1.938l-1.81-1.163l-1.293-1.422l0.13-1.163l0.258-1.809
			l0.646-1.163l2.326-0.905l1.81-0.388l1.292-0.517l0.388-2.327v-4.523l-0.129-3.489c0,0-0.388-2.068,0.388-2.456
			s1.938-2.197,1.938-2.197l0.904-2.973l1.551-1.163l1.81-1.68l2.197-1.68l2.843-1.422l4.265-2.068c0,0,1.293-1.034,2.326-1.034
			c1.034,0,3.36-0.517,3.36-0.517l2.326-1.292h1.938c0,0,1.292-0.646,1.81-0.775c0.517-0.129,1.421-0.646,1.421-0.646l1.422-1.034
			l8.659,0.258c0,0,0.517-2.326,0.904-2.972s1.034-3.489,1.034-3.489l1.421-3.36l1.422-4.394l0.517-3.748l2.456-5.815l0.775-3.619
			l0.775-1.938c0,0-0.518-15.379-0.518-15.896c0-0.517-1.033-3.231-1.033-3.231l-1.938-1.551l-2.973-0.775l-1.422-2.068
			l0.518-3.102l-1.163-1.422l-0.13-1.68v-3.102l2.585-0.259l2.067-1.034l2.068-0.905l1.551-0.646l1.938,0.646l0.904,1.163
			l1.422-0.388l0.646-0.904l-0.388-4.265c0,0-0.646-0.905-1.292-0.905s-2.714,0-3.23,0c-0.518,0-5.428,0.129-5.428,0.129
			l0.258-8.271l19.515,0.517l0.904-1.938l1.163-1.292l0.775,0.129l1.034,1.163l0.259,1.421l0.775,0.646l0.904-0.129l0.646-0.775
			l0.646-0.905l0.518-0.904l1.68-1.551l0.775-1.422l0.904-0.775l1.034,0.646l0.388,1.68l0.517,2.068l0.13,1.163l1.68,0.388
			l0.517,0.775l0.518,1.551l0.129,1.938l-0.129,1.68l-1.034,1.551l0.388,1.034l0.904,0.388l1.81-0.388l1.034-1.551l1.81,0.129
			l1.163,1.81l0.258,1.551l0.905,1.938l13.827,0.129l1.163-1.551h2.844l1.292-0.775l2.585-1.809l2.585-2.197l1.68-1.421l1.81-1.551
			l1.292-0.775l2.197-1.163l0.517-1.163l0.388-1.81l1.292-1.551l1.81-0.904l1.292-1.034l3.36,0.517h2.068l1.68-0.517
			L176.533,230.623z"/>
	</g>
	<g id="rr" transform="translate(-36.05404,-190.90844)">
		<path id="path2999" class="estado" data-estado="rr" d="
			M154.865,203.072l0.738,1.181l0.147,0.886v0.738v1.034l0.738,0.59l0.443,0.738l0.591,0.738h1.033h1.033l0.886,0.443l0.295,0.738l0.591,0.738l1.033,0.295
			l0.296,1.033v0.886l-0.147,1.034l-0.296,2.067l-0.442,0.443l-0.296,0.738l-0.147,1.476l0.147,1.476l-0.295,0.443l-0.886,1.033
			l-0.295,1.033l0.147,1.477l0.147,1.771l0.738,1.477l1.033,1.181l1.477,0.443l1.033,0.59l2.066,0.147l1.477-0.295h1.477
			l1.329-0.886l0.886-0.295l1.476,0.147l1.182,0.443l0.886,1.624l0.886,1.181l1.033,0.59l0.886,1.181l0.295,2.067l0.591,1.771
			l0.886,1.919l1.033,0.886l1.182,1.476l0.295,1.181l0.591,0.886l0.738,1.477l1.181,0.886l0.147,17.863l0.591,0.59l0.147,1.034
			l0.147,1.919l0.296,1.181l1.033,1.034l0.591,1.919l1.033,0.443l1.033,1.329l1.033,1.477l1.182,0.738l0.886,0.443l1.328-0.443
			l0.886-0.738l0.738-1.624l0.147-1.771l1.034-1.477l0.442-1.329l1.033-1.033l0.738-0.738l1.329-0.886h1.181l1.477,0.147
			l1.033,0.591h1.477l0.591,1.329l1.033,0.738l0.295,0.886l1.033,0.443l0.738,0.295l1.624-0.443l1.329-0.59l0.738-1.476v-1.477
			l-0.148-1.181v-1.033l1.329-0.443l1.181-0.886l0.738-0.738l0.443-1.034l0.442-1.329l-0.147-1.476l0.591-0.738l0.591-0.886
			l1.476-0.443l2.362-0.147l2.805,0.147l0.443,0.443l1.181,0.738h1.034l2.066,0.147l1.477-0.147l-0.147-11.516l-2.658-2.657
			l-1.476-1.624l-1.624-1.771l-1.182-0.886l-1.328-1.919l-1.182-0.738l-1.033-3.691l-0.295-1.919l-1.182-1.329l-1.181-1.181
			l-0.886-0.738l0.147-3.691l0.738-2.953l0.591-2.214l-0.296-2.362l0.738-1.771l1.034-1.034l0.886-0.886l0.737-1.476l1.034-1.034
			l0.295-1.329l-0.738-0.886l-1.033-1.033l-1.033-1.329l-0.296-2.658l-0.147-1.771l-2.214-0.295l-2.215,0.148v-1.477l1.181-1.033
			l0.886-1.034l0.738-1.624l0.296-1.033l-1.182-1.771l-1.033-1.329l-2.362-0.295h-2.214h-1.624l-1.034,0.738l-1.328,0.738
			l0.442,1.771l0.886,1.181l0.296,1.772l-0.443,1.033l-0.886,1.034h-1.328l-0.738,1.624l-1.182-0.443h-2.214l-1.034-1.181
			l-0.737-0.295l-1.624,0.59l-1.771,1.181l-0.886,1.034l-1.034,0.886l-0.738,0.886l-0.442,1.329l-4.429-0.148l-3.839-0.443
			l-1.919,0.886l-1.033,1.181l-0.443,1.477l-0.738,1.624l-1.033,1.329l-1.033,1.181h-1.182l-1.328-0.886l-1.182-1.329l-1.033-0.886
			l-2.805,0.443l-1.329-0.59l-0.886-1.034l-1.033,0.148l-1.477,1.476l-2.362-0.59l-0.886-1.181l-1.033-1.476l-1.181-0.591
			l-3.248,0.147l-1.181-1.329l-1.034-1.624l-1.328-1.034L154.865,203.072z"/>
	</g>
	<g id="ro" transform="translate(-36.05404,-190.90844)">
		<path id="path3018-8" class="estado" data-estado="ro" d="
			M198.508,374.391l-2.611-1.368l-3.979-1.119l-1.865-0.995l-3.233-1.119l-2.113-1.616l-1.617-1.617l-2.238-1.865l-1.367-1.492l-1.244-1.368l-4.228,0.622
			l-1.243,0.124l-1.616,1.244l-1.368,1.616l-0.87,1.244l-0.373,1.368l-2.238-0.497l-1.492,0.124l-0.746,1.99l-0.995,2.487
			l-1.616,2.238l-3.357,1.368l-2.363,1.617l-1.491-0.622l-1.617,0.746l-1.492,1.243l-0.497,1.865l-1.865,1.368l-1.741,0.622
			l-1.74,1.243l-2.487-0.373l-2.362-0.373l-1.368-1.368l-2.113-0.871h-2.114l-1.616,1.119l-1.244,1.492l-2.113,2.736l-0.871,1.616
			c0,0,0.249,1.368,0.871,1.368c0.621,0,1.616,0.373,2.113,0.249c0.498-0.125,1.368-1.119,1.368-1.119s0.373-1.119,0.87-1.119
			c0.498,0,1.99-0.746,2.611-0.746c0.622,0,1.368-0.249,1.865-0.249c0.498,0,0.622-0.622,2.735-0.125
			c2.114,0.498,1.617,0.249,2.487,0.249s1.492,0,1.989,0c0.498,0,1.741,0.249,1.741,0.249l0.124,2.487c0,0-0.497,1.865-0.497,2.363
			c0,0.497-0.746,2.487-0.622,2.984c0.125,0.498,0.249,2.611,0.249,3.357s0,2.487,0,2.487l-0.249,2.984c0,0,0.373,0.995,0.871,1.99
			c0.497,0.995,0.746,1.865,1.367,2.238c0.622,0.373,0.746,3.108,0.746,3.108s0.373,0.995,0.498,1.492
			c0.124,0.498,0.621,1.741,1.119,2.114c0.497,0.373,1.616,1.617,1.616,1.617l1.492,0.871c0,0,0,1.368,0.746,1.989
			c0.746,0.622,1.119,1.244,1.119,1.244s0.124,0.373,0.622,0.622c0.497,0.249,0.373,0.498,1.243,0.746
			c0.87,0.249,1.119,0.249,1.74,0.373c0.622,0.125,1.368,0.125,1.617,0.622c0.248,0.497,1.243,0.497,1.243,0.497l1.741-1.119
			l1.119-0.746c0,0,0.87-0.124,1.367-0.124c0.498,0-1.119-1.119,0.746,0.124c1.865,1.244,2.86,2.736,2.86,2.736l1.368,0.498
			c0,0,1.367-0.498,1.989-0.746c0.621-0.249,1.367-0.622,1.367-0.622l0.498,0.746l1.492,1.244c0,0,0.248,0.871,0.746,0.995
			c0.497,0.125,2.486,1.741,2.486,1.741s0.622,0.622,1.119,0.871c0.498,0.249,1.99,1.616,1.99,1.616s0.994,0.249,1.865,0.373
			c0.87,0.125,2.735,0,2.735,0s1.119-0.124,1.367,0.498c0.249,0.622,0.249,0.995,0.498,1.492c0.248,0.498,1.492,0.995,1.492,0.995
			l0.994,0.249c0,0,1.741,0.622,2.114,1.243c0.373,0.622,0.995,1.119,0.995,1.119s0.373,0.249,0.87,0
			c0.497-0.249,1.243-1.243,1.741-1.243c0.497,0,1.989-0.373,1.989-0.373l1.74,0.622l1.617,0.373c0,0,0.124,0.249,0.746,0.622
			c0.621,0.373,2.984,0.373,2.984,0.373l2.238-1.865l2.113-2.487l1.617-3.233l0.248-1.99l1.741-1.741c0,0-0.124-1.243,0.497-1.243
			c0.622,0,1.865-2.238,2.114-2.736c0.248-0.498,1.243-0.498,1.243-1.99s-0.497-3.233-0.497-3.233l-0.995-1.492l-0.746-2.735
			l-0.373-1.617l1.368-1.616c0,0,0.87-1.368,0.746-1.865c-0.125-0.498-0.498-1.741-0.498-1.741s-0.497-0.995-1.367-1.243
			c-0.87-0.249-2.487-0.373-2.487-0.373l-2.735,0.124c0,0-1.119-0.746-1.741-0.87c-0.621-0.125-3.108-0.622-3.108-0.622
			l-2.86-0.124c0,0-0.621-0.871-1.119-1.244c-0.497-0.373-1.367-0.746-1.989-1.368c-0.621-0.622-2.113-1.865-2.113-1.865
			s-1.244-1.244-0.995-1.741c0.249-0.498-0.622-2.736-0.622-2.736l0.373-2.611l1.368-2.487l0.373-3.109l0.497-1.989v-2.114
			l-0.87-1.989l-0.497-1.741l0.248-1.119V374.391z"/>
	</g>
	<g id="pe" transform="translate(-36.05404,-190.90844)">
		<path id="path3978-9" class="estado" data-estado="pe" d="M504.852,374.615l-0.838,0.305
			l-1.144,0.838l-1.906,2.439l-0.609,1.144l-0.991,1.753l-1.144-1.372l-1.296-3.278l0.152-0.991l-2.135-0.153l-1.144-1.067
			l-1.144-0.076l-1.143,0.152l-5.032-3.049l-2.21-0.838l-1.678-0.077l-1.524,1.449l-2.211,0.991l-3.354,1.677l-1.296,1.22
			l-1.677,2.592l-2.363,2.059l-3.202,0.991l-2.058-1.448c0,0-1.602-1.067-1.754-1.372c-0.152-0.305-1.524-1.449-1.753-1.753
			c-0.229-0.305-1.448-1.601-1.448-1.601l-1.296-1.296c0,0-0.687-1.067-0.534-1.372c0.152-0.305-0.229-1.144,0.305-1.449
			c0.534-0.305,2.287-1.372,2.287-1.372l1.067-0.381c0,0,0.839-1.22,1.067-1.525c0.229-0.305,1.296-1.448,1.448-1.753
			c0.152-0.305,0.839-1.677,0.991-1.982s0.609-1.22,0.609-1.22l-0.076-3.278l-0.914-3.202c0,0-0.076-1.601,0.381-1.83
			c0.457-0.229,1.601-0.457,1.601-0.457l2.592,0.457l6.48,0.458h3.125l2.211,0.534l2.135,2.821l1.524,2.516
			c0,0,1.067,0.076,1.678-0.076c0.609-0.152,1.981-1.067,2.516-1.372c0.533-0.305,1.22-0.839,1.677-0.915s1.144,0.534,1.144,0.534
			s1.601,0.305,1.982,0.305c0.381,0,0.99-0.381,1.372-0.229c0.381,0.152,0.838,0.458,1.372,0.61
			c0.533,0.152,1.829,0.305,1.829,0.305l2.059,0.076c0,0,1.601,0.153,1.982-0.152c0.381-0.305,1.22-1.144,1.601-1.448
			c0.381-0.305,1.144-1.144,1.524-1.448c0.381-0.305,1.22-1.525,1.22-1.525l0.839-0.381l3.888-0.305l2.059,0.152l0.457,0.991
			l-0.381,0.991l-1.372,1.83c0,0-1.372,1.677-1.372,2.059c0,0.381,0.381,1.601,0.381,1.601l1.144,0.687l1.144-0.381l5.107-0.534
			l2.363-1.22l4.04-1.067l1.83-0.457l2.363-0.305l2.286-1.448l2.363-1.449l2.669-2.744l1.905-1.525l1.982-1.524l0.381,0.458
			l0.915,2.439l-0.152,3.888l-0.915,5.107v4.422l-0.076,2.21l-1.22,2.287l-0.763,2.058l-1.524,1.753l-1.448,0.762
			c0,0-1.067-0.076-1.144,0.305s-2.211,0.762-2.211,0.762l-0.839-0.076l-1.601-1.22c0,0-0.686-0.838-1.067-0.686
			c-0.381,0.152-1.22,0.076-1.753,0.686c-0.534,0.61-1.83,0.686-2.439,1.067c-0.61,0.381-2.135,0.686-2.211,1.144
			c-0.076,0.457-1.144,1.22-1.448,1.753c-0.305,0.534-1.296,0.915-1.83,1.525c-0.533,0.61-2.516,0.686-2.516,0.686h-2.211
			l-2.286-0.991l-1.906-1.524c0,0-0.229,0.076-0.533-0.534c-0.306-0.61-1.067-1.448-1.067-1.448l-1.296-0.534l-0.991-0.991
			l-0.534-0.61L504.852,374.615z"/>
	</g>
	<g id="pi" transform="translate(-36.05404,-190.90844)">
		<path id="path3959-0" class="estado" data-estado="pi" d="
			M437.766,329.473l1.588-4.234l0.706-0.706l0.706-2.823l-1.412-3l-0.353-2.823l0.353-1.764l1.235-2.117l1.941-2.294l0.705-2.646c0,0,0-1.235,0.706-1.764
			s2.646-1.588,2.646-1.588l2.823-0.882l1.764-1.588c0,0,0.177-1.059,0.883-2.293c0.705-1.235,0.176-1.941,0.882-1.941
			s2.646,0.882,2.646,0.882l2.294,0.882l0.353,2.294c0,0-1.059,1.588-1.059,2.117s-1.411,1.588-1.411,2.293
			c0,0.706,0,2.823,0,2.823s0.882,1.588,1.94,2.823s2.117,3,2.117,3l1.059,3.705c0,0-0.529,1.412,0,2.823
			c0.529,1.411-0.353,3.528,0.177,4.587s0.529,3.353,0.529,4.058s-0.177,0.882,0.177,2.117c0.353,1.235,0,2.47,0.529,3.705
			c0.529,1.235,1.059,2.646,1.411,3.529s0.706,1.765,0.882,3.529c0.177,1.764,0.354,2.646,0.706,3.352
			c0.353,0.706,0.529,0.706,1.235,1.059c0.705,0.353,1.588,0.353,2.117,1.235c0.529,0.882,0.705,2.47,0.705,2.47l-0.705,1.94
			l-1.412,1.235c0,0-1.234,1.764-1.234,2.47c0,0.706,0.882,4.411,0.882,4.411l0.529,3c0,0,0,0.706-0.706,1.764
			c-0.705,1.059-1.94,3-1.94,3l-2.117,3c0,0-1.588,0-1.94,0.706c-0.354,0.706-1.412,1.412-1.412,1.412l-2.999,0.353l-1.941,1.764
			l-1.764,1.941l-1.941,2.646l-2.646,2.117h-2.646l-1.059,1.941l-1.588,1.059l-1.94,0.706l-4.588-2.47l-2.117-1.235h-2.646
			l-2.47,0.176l-1.059,3v3.529l-0.177,3.352l-1.765,3.529l-2.47,2.294l-3.176,0.353l-2.117,0.353l-2.646,1.941l-3.528,1.588
			l-3.882-1.235l-2.117-1.941l-2.294-2.117l-2.47-1.765h-2.823l0.706-0.176c0,0,0.529-0.529,1.234-1.412
			c0.706-0.882,0.177-2.117,1.059-3c0.883-0.882,1.059-1.588,1.412-2.293c0.353-0.706,0.176-1.588,0.176-1.588
			s-1.234-0.882-1.234-2.293c0-1.412-1.059-2.117-1.059-3.529s-0.177-3.353-0.177-3.353l0.177-2.646l1.059-2.117l2.822-5.469
			l1.235-6.352l1.588-2.47l3.353-1.411l2.999-0.882l3.882-1.412l2.999-2.47c0,0,2.294-2.294,3-2.823s1.94-1.588,2.999-1.588
			s3,0,3,0l1.764,1.941c0,0,0.529-0.353,1.412-0.706c0.882-0.353,0.529-1.059,1.94-1.059s2.823-0.706,2.823-0.706
			s1.765-0.353,2.294-1.059c0.529-0.706-0.529-1.412-0.706-2.823c-0.177-1.411-0.882-1.764-0.882-2.646
			c0-0.882-1.06-3.176-1.06-3.176l-0.705-2.117l-1.059-3.529L437.766,329.473z"/>
	</g>
	<g id="se" transform="translate(-36.05404,-190.90844)">
		<path id="path3984" class="estado" data-estado="se" d="
			M517.622,397.683l1.22-0.854l0.976-0.854l1.158-0.854c0,0,0.244-0.67-0.061-0.976c-0.305-0.305-1.28-1.159-1.28-1.159l-0.915-0.731l-0.731-0.671
			l-1.464-1.402l-1.585-1.158l-1.22-1.159l-1.524-1.22c0,0-1.22-0.915-1.464-1.098c-0.243-0.183-1.219-0.731-1.646-1.037
			c-0.427-0.305-1.464-0.67-1.769-0.731s-1.951-0.793-1.951-0.793l-1.342-0.305l-1.28-0.183l-0.915-0.244l-0.549,0.305
			l-0.487,1.037c0,0-0.183,1.098-0.062,1.341c0.122,0.244-0.122,2.134-0.122,2.134l0.366,0.732c0,0,0,0.731,0.549,0.976
			s1.28,1.28,1.28,1.28l0.793,0.671l0.549,1.28c0,0-0.062,0.61-0.183,1.159c-0.122,0.549-0.671,1.585-0.671,1.585l-0.61,1.524
			l-0.548,1.098c0,0-1.098,0.305-1.342,0.366s-0.671-0.488-1.464,0.366c-0.792,0.854-1.28,1.159-1.28,1.159l-0.305,1.098
			c0,0-0.305,1.219-0.244,1.707c0.062,0.488,0.244,2.256,0.244,2.256l0.671,0.671l1.341,1.219c0,0,0.854,1.098,0.976,1.402
			c0.122,0.305,0.062,0.671,0.61,1.159s1.769,0.488,1.769,0.488l2.072,0.976"/>
		<path id="path3986" class="estado" data-estado="se" d="
			M503.476,409.634l1.891,0.671l2.134,0.305c0,0,0.793-0.122,1.28-0.609c0.488-0.488,1.159-1.708,1.281-2.013c0.121-0.305,0.976-2.195,1.097-2.622
			c0.122-0.427,0.61-2.134,0.61-2.134l1.036-1.159l1.159-0.915l1.585-1.402l0.854-1.28l1.22-0.915l0.366-0.244l0.487-0.305
			l1.586-1.28c0,0,0.854-0.244,0.792-0.793c-0.061-0.548-0.122-1.036-0.427-1.28c-0.305-0.244-1.646-1.402-1.951-1.524
			s-2.561-1.463-2.561-1.463s-0.732-0.854-1.159-1.28c-0.427-0.427-1.768-1.524-1.768-1.524l-1.83-1.22l-2.5-1.707l-2.256-0.854
			c0,0-1.829-0.67-2.561-0.731c-0.732-0.061-2.195-0.427-2.195-0.427s-0.731,0.731-0.609,1.158
			c0.121,0.427,0.427,2.073,0.427,2.073l0.122,1.524c0,0,0.183,1.524,0.731,1.708c0.549,0.183,0.976,0.854,1.22,1.037
			c0.243,0.183,0.305,1.951,0.305,1.951l-0.305,2.073l-0.732,1.158l-1.036,1.708l-1.22,0.549l-2.866,1.159l-0.305,1.768
			c0,0-0.122,2.012-0.061,2.317c0.061,0.305-0.244,0.671,0.731,1.524s1.891,2.317,2.256,2.805c0.366,0.488,0.976,0.792,1.464,1.097
			C502.256,408.842,503.476,409.634,503.476,409.634L503.476,409.634z"/>
	</g>
	<g id="al" transform="translate(-36.05404,-190.90844)">
		<path id="path3981" class="estado" data-estado="al" d="
			M500.242,380.202l0.915-2.21l1.905-2.439l1.754-0.763l2.516,0.915l3.125,1.83c0,0-0.838,0.229,0.305,0.991c1.144,0.763,2.059,1.525,2.059,1.525
			s1.754,0.534,2.059,0.61s1.144,0.076,1.677,0.152c0.534,0.076,2.592-0.686,2.592-0.686s1.525-0.838,1.83-0.915
			s1.22-1.22,1.22-1.22l1.448-1.067l1.906-1.144l2.058-0.61l1.296-0.305c0,0,1.372,0.305,1.678,0.61
			c0.305,0.305,2.134,0.686,2.134,0.686s0.687-0.381,1.144-0.381c0.458,0,1.982-0.686,1.982-0.686s1.372-0.915,1.677-0.915
			c0.306,0,1.296-0.991,1.296-0.991l0.229,0.762l-2.363,0.534l0.457,1.296l0.152,1.448l-1.905,2.287l-1.754,1.83l-1.753,1.144
			l-0.991,0.762l-1.144,2.059c0,0-1.448,1.753-1.372,2.134s0,1.22-0.076,1.525c-0.076,0.305-1.22,1.524-1.22,1.524l-1.22,1.982
			l-1.22,0.534l-1.524,1.525l-2.059,0.152c0,0-1.601-1.83-1.982-1.982c-0.381-0.152-2.363-1.296-2.363-1.296l-1.829-1.83
			l-1.678-1.524l-2.21-1.83l-2.439-1.372l-2.211-0.838l-2.439-0.763l-2.059-0.381l-0.762-0.687L500.242,380.202z"/>
	</g>
	<g id="pb" transform="translate(-36.05404,-190.90844)">
		<path id="path3971" class="estado" data-estado="pb" d="
			M494.525,360.305l1.448-0.305l1.067,0.381c0,0,0.61,0.534,0.991,0.534s2.668,0.076,2.668,0.076l1.754-0.076c0,0,0.609-0.305,1.448-0.687
			c0.838-0.381,1.448-1.296,1.448-1.296l0.533-0.762l1.067-1.296l0.763-1.144c0,0,2.211-0.229,2.668-0.229s3.354,0.229,3.354,0.229
			l0.076,0.762c0,0-0.763,0.686-0.915,1.067c-0.152,0.381-1.677,2.439-1.677,2.439s-0.534,1.22-0.382,1.601
			c0.153,0.381,0.153,0.61,0.382,1.144c0.229,0.534,0.305,0.915,0.609,1.144c0.305,0.229,0.763,0.152,1.448,0.076
			c0.687-0.076,0.153-0.305,1.373-0.457c1.22-0.153,0.762-0.305,1.981-0.229s2.135-0.381,2.439-0.381s1.296-0.381,1.754-0.61
			c0.457-0.229,0.457-0.763,1.296-0.763c0.838,0,1.144-0.381,2.287-0.457c1.143-0.076,1.143-0.458,1.981-0.458
			s1.144-0.229,1.906-0.229c0.762,0,1.067-0.381,1.601-0.457s1.296-0.61,1.906-0.991c0.609-0.381,1.144-1.067,1.448-1.296
			s1.296-0.991,1.601-1.22s1.601-1.372,1.601-1.372l0.687-0.915l1.067-0.915c0,0,0.533-0.915,0.839-1.067
			c0.305-0.152,1.066-0.838,1.066-0.838l1.525-0.61c0,0-0.61-1.373-0.915-1.982s-0.915-1.524-0.915-2.439
			c0-0.915-0.229-1.601-0.229-1.601s0.076-0.61-0.61-1.296c-0.686-0.686-1.448-1.601-1.448-1.601l-0.381-0.458l-4.65,0.076
			l-1.22,0.686l-1.448,1.22l-0.915,0.61l-1.372,0.381l-1.22-0.915l-1.829-1.372l-0.458-0.991l-1.372,0.229l-1.144,0.762
			l-0.991,0.763c0,0,0.152,1.448,0.152,1.753c0,0.305-0.457,3.202-0.457,3.202l-1.144,0.915l-1.981,0.153l-1.602-1.373
			c0,0-0.457-0.686-0.838-0.686c-0.382,0-3.583-0.381-3.583-0.381s-1.525,0-1.83-0.229c-0.305-0.229-0.609-0.991-0.609-0.991
			l2.896-3.736l0.457-1.524c0,0,0.763-0.991,0.306-0.991c-0.458,0-0.458-0.305-1.144-0.305c-0.687,0-0.915-0.076-1.372-0.076
			c-0.458,0-1.297,0-1.297,0l-2.058,0.915c0,0-1.372,0.839-1.83,0.839c-0.457,0-1.981,1.296-1.981,1.296l-1.602,0.838l-1.677,0.762
			l-1.296-0.229l-1.448-0.458l-0.915-0.991l-1.144-0.229l-0.381,0.305l-1.296,2.134l-0.152,2.745l-0.382,1.753l-0.609,1.449
			l-0.61,1.524c0,0,0,2.135,0.382,2.287c0.381,0.152,0.838,1.906,0.838,1.906l0.076,1.22l-0.609,1.22l-0.991,0.839l-0.076,0.076
			l0.457,0.533l1.22,0.61l1.296,0.381L494.525,360.305z"/>
	</g>
	<g id="ma" transform="translate(-36.05404,-190.90844)">
		<path id="path3968" class="estado" data-estado="ma" d="
			M397.932,275.206l-1.403,1.403l-1.203,2.406v2.606l-0.802,2.205l-1.002,2.807l-1.203,2.205v2.606l-1.002,3.408l-0.401,2.807
			l-0.602,2.205l-1.804,2.406l-2.205,2.406l-1.805,3.007l-1.604,0.802l-2.005,1.805l-2.405,1.604l-2.005,2.205l-2.205,2.606
			l-2.005,1.403l-2.406,1.203l-1.804,2.205l-2.205,1.604l-1.403,2.205l-0.401,1.403l0.201,1.804h2.004l1.805-1.002l2.205-1.002
			l2.606,0.201c0,0,3.207,2.004,4.009,2.205c0.802,0.2,1.604,1.203,1.604,1.203l-0.401,18.644l-1.805,2.206l-1.002,1.203
			l1.805,1.604l-0.803,2.606l0.201,2.606l3.207,2.406l3.208,1.604l3.407,1.203l2.406-0.401l2.205-0.802v1.403l-1.203,1.804
			l-4.009,3.809l-1.604,6.014l2.807,2.004c0,0,0.802,0.201,1.604,1.604c0.802,1.403,1.002,2.405,1.002,2.405l0.2,1.403l0.602,5.212
			l2.405,2.406l3.408,1.604c0,0,0.401,1.403,1.604,1.804c1.202,0.401,2.205-0.401,2.205-0.401l1.604-4.21l1.403-3.207l-1.604-4.01
			l-0.803-5.613v-3.408c0,0,2.807-3.408,3.208-4.41s1.403-6.816,1.403-6.816l1.403-3.608l2.807-1.604l4.21-2.004l3.207-0.201
			l2.606-1.403l2.405-2.406l1.805-1.804l1.604-1.203l2.405-0.602l1.604,0.802l1.202,1.002l2.406-0.802l1.002-0.602l2.005-0.401
			l2.807-0.802l1.403-2.205l-4.812-12.83l2.606-3.007l1.202-2.806l1.604-2.807l0.4-3.007l-1.804-3.608l-0.201-2.606l1.003-2.205
			l1.804-1.805l1.805-3.608l1.604-2.606l3.809-2.004l1.805-1.203l1.002-3.007c0,0,1.003-1.203,0.201-1.203s-3.208,0-3.208,0
			s-1.604-0.601-2.405,0.201s-2.606,1.002-2.606,1.002l-2.005-2.406c0,0-3.007-1.604-4.009-2.205
			c-1.003-0.602-2.005-1.604-3.007-1.604c-1.003,0-3.208,0.201-4.01,0.401c-0.802,0.201-3.608,1.604-3.608,1.604l-2.205,0.802
			l-2.807,1.002l-1.805,1.604l-1.403,2.004l-1.403,1.604l-1.804,2.606c0,0-1.203-0.802-0.802-1.604
			c0.4-0.802,1.403-5.212,1.403-5.212l0.602-2.606l-0.401-2.606l-1.604-1.203l1.604-2.406l0.802-1.804l-2.606-2.005l-4.61-3.007
			c0,0,0.2-1.002-1.203,0s-2.205,1.203-2.205,1.203l-1.002-1.804l-2.406-2.405l-2.004-1.403l-1.604-0.802H397.932z"/>
	</g>
	<g id="rn" transform="translate(-36.05404,-190.90844)">
		<path id="path3965" class="estado" data-estado="rn" d="
			M510.958,322.957l-2.999,0.706l-1.588,1.412l-1.765,0.882l-1.412,0.706l-0.705,2.294l-1.235,1.941l-1.235,3.705l-1.764,2.117
			l-1.235,2.47l-1.94,1.941l1.588,1.941l2.646,0.706l2.999-1.412l3.353-2.117l1.94-0.882l1.941-0.529l1.94,0.529l-0.353,1.588
			l-1.588,1.764l-1.588,2.117l0.705,1.765c0,0,0.706,0.176,1.412,0.353c0.705,0.176,2.47,0.176,2.47,0.176l2.294,0.176l1.94,1.941
			l1.411,0.706l2.471-1.411c0,0,0.353-0.177,0.529-1.588c0.177-1.412-0.177-3.882-0.177-3.882l1.059-0.882l1.765-0.176l0.529,1.235
			l2.646,1.765l2.294-0.353l1.411-1.059c0,0,2.646-1.765,3.528-1.588c0.883,0.176,1.941,0,1.941,0l2.293,0.176l-0.353-2.646
			l-0.882-4.234l-1.235-4.234l-1.588-2.294c0,0-1.235-1.588-2.47-1.588c-1.235,0-3.529-1.059-3.529-1.059h-4.058l-3.176-1.412
			h-1.412l-4.058-1.411c-0.988-0.762-0.174-1.275-2.965-2.286c-0.685-0.123-1.178,2.097-1.765,1.94"/>
	</g>
	<g id="ce" transform="translate(-36.05404,-190.90844)">
		<path id="path3962" class="estado" data-estado="ce" d="
			M457.851,298.256l-1.059,2.47l-1.588,1.765l-0.529,2.999l0.354,2.294l1.059,2.293l1.234,2.294l1.588,3.352l0.883,5.117v3.705
			l0.353,3.529c0,0,0,1.941,0.177,2.646c0.176,0.706,0.529,2.646,0.529,2.646l1.234,5.117l0.883,3.529l0.882,2.294l1.94,2.47
			l1.412,1.059l0.353,1.588l-0.882,3l-1.235,1.941l-0.177,0.353l0.177,0.353h0.882l-0.353,0.176l0.177,0.353h0.176l0.529-0.353
			l-1.059-0.353l1.235,0.176l4.588,0.353c0,0,4.234,0.176,4.939,0.176c0.706,0,3.705,0,3.705,0l1.765,0.706l1.059,2.47l1.94,3.176
			c0,0,0.883,0,1.765,0s2.471-1.765,2.471-1.765s1.234-1.412,2.117-1.588c0.882-0.177,1.234-1.235,1.234-1.235l1.059-1.235
			l-1.234-1.941l-0.706-2.646c0,0,0.177-1.764,0.882-2.646c0.706-0.882,0.529-4.764,0.529-4.764l1.588-2.646l3.176-2.646
			l1.412-2.294l1.411-2.823l3.176-7.058l3.882-2.47l2.823-0.706l0.705-0.706l-2.822-3.353l-3.353-2.293
			c0,0-2.117-1.412-2.823-1.764c-0.706-0.353-4.764-2.47-4.764-2.47l-1.765-2.117c0,0-1.234-1.941-2.293-2.47
			s-5.999-3.529-5.999-3.529l-3-2.293l-4.587-3l-4.058-1.059l-4.411-2.47l-2.646,0.176l-1.588,1.765l-3,0.176l-3.705-0.176
			L457.851,298.256z"/>
	</g>
	<g id="ba" transform="translate(-36.05404,-190.90844)">
		<path id="path3954" class="estado" data-estado="ba" d="
			M406.155,398.118l-1.94-2.117l-2.823-1.588h-2.823l-2.117,0.882l-1.059,3l-3.353,4.058l-1.588,3l0.177,1.235l1.588,2.823l1.235,1.059l1.234,1.235
			l-0.882,1.235l-0.353,4.058l0.353,1.588l1.235,1.764v1.941l-0.706,3l-0.529,2.47l0.706,11.116v2.47l2.47,2.47l0.529,4.234
			l0.529,3.882l0.177,2.117l2.822,1.411l4.94-1.411l3.882-2.823l4.411-3.881l2.47-1.941c0,0,1.765-0.353,2.646-0.353
			s3.176-0.353,3.176-0.353l1.412-0.529l1.059-0.882l1.234-0.706l1.412,0.706l-1.235,1.412l-0.706,1.412l0.883,4.234l2.822,0.882
			l2.294-1.234l2.47-1.059l3.177,1.411l2.822,2.117l2.117,2.646l1.588,1.588l3.705-0.177l3.353,1.412l3.882,2.822l3.528,3.883
			c0,0,0,1.059,0.706,1.059s4.94-0.707,4.94-0.707h2.646l2.646,0.354l4.058,2.117l2.294,2.117l-0.353,1.764l-2.646,1.588
			l-1.412,2.824l-0.705,2.999l-2.294,3.882l-2.117,2.293l3.882,4.764l1.059,1.412l2.999,3.176l3.353,2.47l1.764,0.529l1.412-2.294
			l1.588-4.587l1.059-5.822l1.411-4.764l1.765-4.765l0.706-3.527l1.059-4.588l0.882-3.176l1.059-2.294l-1.765-2.117l0.354-16.585
			l-0.883-0.706v-1.765l-1.234-2.117c0,0-1.412-0.882-0.706-0.882s1.588-0.882,1.588-0.882s1.235-0.176,0.529-1.412
			c-0.706-1.235-1.235-2.293-1.235-2.293l1.765-1.059l1.059-1.765l1.765-1.588c0,0,0.705-1.412,0-1.588
			c-0.706-0.176-1.765-0.529-1.765-0.529l-0.177-0.882l1.412-1.235l0.353-1.235l1.765-0.706l1.764,0.177l0.529,1.411l0.883,1.765
			l1.234,1.059l1.941-2.294l1.588-2.47l1.765-1.588l0.705-1.941l1.235-2.293l1.059-2.823l1.765-1.588l0.529-1.059l-3.529-0.353
			l-2.999-2.117l-1.235-1.764l-2.117-2.47l0.177-2.293v-2.294l2.117-0.706l2.117-0.529l1.235-2.117c0,0,0.176-1.588,0.705-2.294
			s0.529-2.47,0.529-2.47l-1.764-1.235l-1.588-2.117v-3v-2.823l-2.117-1.941l-1.588-2.823c0,0,0.529-2.117-0.883-1.94
			c-1.411,0.176-3.705-1.765-3.705-1.765l-1.588,0.529l-1.94-1.588l-3.176-1.764l-1.941-0.882l-1.588,0.177l-1.765,1.411
			l-2.999,1.588l-3.882,2.117l-1.411,2.117l-1.94,2.294l-1.235,0.882l-2.646,0.706l-2.117-1.764c0,0-1.235-0.529-1.588-1.235
			c-0.353-0.706-1.765-2.293-1.765-2.293l-1.765-1.765l-1.234-1.411l-1.059-0.353l-4.588,2.293l-3.176,4.235l-1.94,1.764
			l-1.412-0.353l-2.293,1.059l-1.235,1.764l-1.235,1.412l-1.764-0.529c0,0-0.883-0.177-1.588-0.529
			c-0.706-0.353-2.117-1.412-2.117-1.412l-1.059-0.706l-1.765,0.176l-2.294-0.353l-1.234-0.529l-1.941,1.059l-1.059,1.765
			l-0.177,6.528l-1.059,3.353l-0.882,1.764l-2.646,1.941h-3.353l-1.764,0.882l-0.883,0.529l-2.117,1.94l-2.47,0.882l-3-0.882
			l-1.411-1.588L406.155,398.118z"/>
	</g>
	<g id="go" transform="translate(-36.05404,-190.90844)">
		<path id="path3937" class="estado" data-estado="go" d="
			M346.886,426.833l-2.412-1.447l-0.965-0.772l-0.386-1.158v-2.316l-1.351-1.447H341l-1.254,1.93l-0.772,1.93l-0.868,1.833
			l-1.255,0.579l-0.096,2.509l0.192,2.315l-0.289,2.316l-0.676,1.254l-1.158,1.833l-0.096,1.351l-0.29,2.026l-0.868,1.158
			l-1.062,1.061c0,0-0.097,1.448,0.097,2.026c0.192,0.579,0.097,2.123,0.097,2.605s-0.29,2.123-0.29,2.123
			s-0.868,1.062-0.868,1.447c0,0.387-1.255,1.641-1.255,1.641l-1.736,0.869l-1.641,1.447l-0.676,0.867l-1.351,2.799l-0.771,3.474
			l-1.641,1.931l-1.255,1.157l-1.833,0.29l-5.307,6.657l-0.193,1.447l-1.736,2.315l-1.255,1.255l-2.605,2.798l-1.062,1.447
			l-0.868,2.123l0.29,2.316l0.192,3.57l-0.771,2.025l-1.447,2.316l-0.965,1.447l7.14,5.789l2.605,1.641
			c0,0,2.895,0.289,3.667,0.676c0.771,0.386,3.474,1.061,3.474,1.061s2.412,0.869,3.28,1.447c0.869,0.58,3.185,1.93,3.57,2.123
			s2.799,2.027,3.185,2.412c0.386,0.387,3.184,1.545,3.184,1.545l0.483-0.387l0.578-1.543l2.316-1.545l2.509-1.447l1.254-1.254
			l0.676-1.352l0.868-1.447l1.158-1.061h0.965l2.315-0.387l2.123-0.482l1.641-0.482l1.447-0.676l1.254,0.387l1.062,0.676
			c0,0,0.965,0.867,1.352,0.867c0.386,0,0.868-0.096,0.868-0.096l1.736-2.799l1.641-1.157l3.281-0.676l3.28,0.482l1.062,0.966
			c0,0,1.736,0.289,2.605,0.482c0.868,0.192,2.604,0.192,2.604,0.192l0.869-0.097l1.351,0.869l2.702-1.063l2.315-1.833l2.123-2.702
			l0.386-1.736l0.289-1.93l0.579-1.352l-0.386-1.64l-1.062-1.641l-0.193-1.351l1.641-1.352l0.386-3.184
			c0,0-0.386-1.834-1.062-2.316c-0.675-0.482-2.412-2.701-2.412-2.701l-1.544-3.184l-0.868-1.158l0.124,0.239l4.604,0.05
			l1.254-2.605l1.544-0.965l1.93-1.641c0,0,0.193-1.641-0.097-2.219c-0.289-0.579-1.254-3.57-1.254-3.57l0.579-2.219l2.605-1.834
			l0.675-1.736l0.868-2.123l0.193-1.254l3.088,2.122l2.605,1.447l1.833,0.483l-0.482-8.975l-1.833-2.605l-1.352-1.93v-14.185
			h-3.763l-1.737,0.193l-1.736,1.061l-2.22,1.062l-2.219,1.64c0,0-1.158,0.579-1.544,0.772c-0.386,0.193-1.93,0.772-1.93,0.772
			l-1.447-1.351c0,0-0.676-1.062-1.352-1.254c-0.675-0.193-1.157,0-1.157,0s-0.772,0.772-0.772,1.158s-0.193,1.254-0.193,1.254
			l-0.868,1.158l-1.736-0.482l-1.641-1.254c0,0-1.544-1.158-1.93-1.158s-1.062,0.097-1.062,0.097l-0.676,0.482l-0.965,0.482
			l-1.447-1.062c0,0-0.868-0.772-0.965-1.158c-0.097-0.386-1.158-2.413-1.158-2.413S361.746,425,361.167,425s-1.255,0-1.255,0
			l-1.158,1.254l-0.578-0.772l-0.869-0.193l-1.351,0.386l-1.062,1.448l-0.675,1.64l-1.062,1.737l-1.544-1.061l-1.834-0.772
			l-1.351-0.771L346.886,426.833z"/>
	</g>
	<g id="df" transform="translate(-36.05404,-190.90844)">
		<path id="path3934" class="estado" data-estado="df" d="
			M366.183,470.082h15.356l1.622-0.541l0.108-1.946l0.757-0.541l-0.108-1.297l-0.324-1.623l-0.108-1.838l-1.729-1.189c0,0-2.596-1.082-3.028-1.082
			s-4.218,0.107-4.218,0.107l-3.353,0.109l-0.217,1.297l-3.46-0.324l-1.515-0.324l-0.107,2.055l-1.515,1.082l0.324,2.162v1.623
			l1.082,0.107l0.324,0.865L366.183,470.082z"/>
	</g>
	<g id="ms" transform="translate(-36.05404,-190.90844)">
		<path id="path3910" class="estado" data-estado="ms" d="
			M304.194,493.714l-3.078-1.539l-1.231-1.539l-0.771-0.924v-2.156v-2.77v-2.311v-1.385l-1.539,0.309l-1.231,0.77l-0.616,1.539l-0.615,1.693l-0.77,1.539
			l-0.924,0.309l-1.848,0.461l-2.463-0.461l-1.848-1.078l-1.693-1.539l-1.077,1.077l-1.078,1.54l-2.771,0.307l-3.695-0.77
			l-1.693-1.23l-1.385-1.54l-2.155-0.616l-2.771-0.308l-1.539-0.77l-1.386-0.924l-0.77,0.771l-3.387,1.23l-2.617,0.309
			l-1.386,0.308l-1.693,1.847l-1.693,0.924l-2.001,1.693l-2.771,0.154l-3.694,0.462l-0.924,2.155l2.001,2.002l-0.153,3.848
			l-1.078,3.387v2.771l0.77,1.231l0.154,2.617l-1.231,2.464l-2.925,2.77l-1.54,2.311c0,0,0.462,1.23,0.771,1.847
			c0.308,0.616,0.923,1.693,1.539,2.155c0.615,0.462,1.231,1.078,1.231,1.078l-0.924,2.463l-1.693,0.615v2.463l0.462,2.771
			l0.154,2.309v2.926c0,0-0.154,1.231,0.77,1.848c0.924,0.615,1.231,1.23,1.231,1.23v2.464l-0.154,2.616l-1.077,2.311l-0.924,1.693
			l-0.308,1.847l2.309,0.616l1.54-1.539l1.693,0.153l1.386,1.231l4.31,0.77l3.233,0.154l2.155-0.154l2.309-0.924l3.233-0.308
			l1.848,0.308c0,0,4.464,2.31,5.233,2.771c0.771,0.462,1.54,2.463,1.54,2.463l0.153,4.002v4.773c0,0,0.616,2.001,0.771,2.617
			c0.153,0.615,2.001,3.54,2.309,4.156c0.308,0.615,1.848,2.463,1.848,2.463l1.231,0.924l2.155-2.463l2.155-1.54l1.848-0.77
			l1.231,1.386l1.385,2.925v2.31l0.771,2.463c0,0-0.154,0.615,0.77,0.308s1.386-1.231,1.386-1.231l0.308-2.31
			c0,0-0.616-1.539,0.153-2.155c0.771-0.615,1.694-2.309,1.694-2.309l2.771-3.541l1.386-2.463l1.847-2.617l1.232-3.079l1.539-1.847
			c0,0,3.541-2.002,4.156-2.156c0.616-0.153,2.925-2.463,2.925-2.463l4.157-1.693l2.771-2.617l1.693-3.694l2.771-4.157l1.231-2.154
			l1.231-2.617l2.001-2.617l0.309-3.387l0.923-1.848l2.617-1.693l2.925-1.539l1.232-0.924v-3.541l0.923-3.232
			c0,0-0.153-1.232,0-2.155c0.154-0.924,1.232-1.231,0.154-1.847c-1.077-0.617-4.003-2.617-4.003-2.617s-2.463-2.002-3.078-2.311
			c-0.616-0.307-2.771-1.539-2.771-1.539l-2.463-1.385c0,0-1.078-0.309-2.155-0.309c-1.078,0-4.772-0.924-4.772-0.924l-2.309-0.615
			l-1.078-1.231l-2.771-2.155l-2.464-2.002L304.194,493.714z"/>
	</g>
	<g id="mt" transform="translate(-36.05404,-190.90844)">
		<path id="path3905" class="estado" data-estado="mt" d="
			M199.041,373.768l29.764,0.697l2.093-2.558l3.72,0.232h2.559l1.859-3.023l0.698-5.115l0.697-3.488l0.232-4.651l1.163-2.558l0.697,0.232l2.558,1.86l2.093,3.488
			l1.628,2.558l-0.232,3.721l-0.466,4.186l1.628,2.325l8.371,8.604l4.883,0.697l17.904,1.628l19.3,1.627l19.997,1.395l16.277,1.86
			h6.743l-3.023,6.743l-0.93,5.348l-0.697,2.791l-1.628,2.558l0.232,7.906v7.906l0.232,6.046l0.232,4.65l-2.093,4.186l-0.697,4.65
			c0,0-2.093,1.395-1.628,3.023c0.465,1.627-0.232,5.813-0.232,5.813l-1.86,3.022l-3.255,1.86c0,0-1.86,1.395-1.86,2.558
			s-1.163,3.72-1.163,3.72l-1.86,3.721l-3.72,1.162l-2.093,2.559l-1.396,1.859l-2.79,5.349l-2.325,2.558l-2.325,1.86
			c0,0-1.396,1.163-1.396,2.325s0.232,4.186,0.232,4.186l0.232,3.488l-2.79,3.953l-0.697,0.697l-2.791-1.628l-1.859-2.79
			l-0.232-3.256v-5.115l-3.023,1.395l-1.395,3.953l-3.721,1.396l-3.256-1.163l-1.859-2.092l-3.256,2.557l-1.86,0.698l-4.186-1.163
			l-1.395-1.395l-1.628-1.395l-2.093-0.233l-3.488-0.697l-1.162-1.163l-0.931-0.232l-2.092,1.86l-3.256,0.232h-2.325l-1.396,2.325
			l-2.79,1.396l-1.396,1.163l-1.859,0.232l-3.721,0.232l-1.628-0.931l-1.162-3.255l-2.093-1.163l-2.791-2.558l-2.092-2.093v-4.65
			l1.395-2.558l0.465-2.093l-0.465-0.931l-1.395,0.232l-1.86,1.163l-2.093,0.931l-11.161,0.232l-1.628-1.396h-1.396l-1.395,1.396
			l-3.953-0.697l-0.931-1.861l-0.232-5.115l-1.395-2.79l-2.558-2.79l1.627-2.559l0.698-4.418l1.859-3.022l-0.93-5.348l-1.86-4.186
			l-1.86-2.558l3.023-2.79l1.86-1.86l0.697-2.325l0.232-2.791l1.86-1.627l1.628-2.093l1.859-3.488l0.466-1.628l-0.698-1.86
			l-0.697-2.325l-0.93-2.093l-0.233-1.396l0.931-1.627l0.93-1.163v-1.628l-0.465-1.163l-1.628-1.395h-2.093h-2.79l-1.86-0.465
			c0,0-2.325-0.232-3.255-0.232c-0.931,0-3.023-0.698-3.023-0.698l-2.325-1.395l-2.79-2.325l-1.396-1.86l-0.232-3.721l0.931-2.558
			l1.628-4.186l0.697-3.022l-0.697-2.791l-0.931-1.86v-2.79L199.041,373.768z"/>
	</g>
	<g id="mg" transform="translate(-36.05404,-190.90844)">
		<path id="path3931" class="estado" data-estado="mg" d="
			M338.497,505.986l-1.514,0.54l-2.271,1.623l-0.541,0.865v1.406l-0.433,1.514l-0.324,1.514l-0.217,1.947l-0.107,1.73l0.648,0.432l1.622-0.107l2.163-1.189
			l2.487-0.865l1.189,0.756l2.813,1.299l1.946,0.648l2.055,0.108l1.189-0.108l0.865-0.757c0,0,0.217-0.216,0.865-0.108
			c0.649,0.108,1.947,0.108,1.947,0.108l1.405,0.433l1.082,0.865l-0.108,0.865l0.216,2.055c0,0-0.648,1.838-0.216,1.946
			s0.433,0.325,1.406,0.433c0.973,0.108,1.514,0,2.162-0.217c0.649-0.216,0.649-0.865,1.082-0.865s1.514-0.54,2.163-0.54
			c0.648,0,0.865-0.974,0.865-0.974l1.081-0.757l1.839,0.325l4.217-0.109h1.406l0.974-1.081l1.946-1.839l1.839-0.432l1.622,0.107
			l1.514,0.648l1.515,2.705l-0.108,2.162l0.324,1.514l0.648,2.055l0.325,1.73c0,0-0.649,1.189-0.649,1.623
			c0,0.432-0.108,1.297-0.108,1.297l2.704,4.65l1.622,1.406c0,0,1.298,0.541,1.839,0.541c0.54,0,1.946,0,1.946,0l0.757,1.189
			l-1.189,2.271l-1.298,2.162c0,0,0.217,1.839,0.433,2.271c0.217,0.432,0.865,2.379,0.865,2.379l0.433,2.271l1.082,2.379
			c0,0,1.622,1.947,1.838,2.379c0.217,0.433,2.487,2.703,2.487,2.703l3.028,0.217l2.487-1.081l2.271-1.406l1.729-0.974l3.785-1.405
			l2.813-0.757l1.838-1.082l1.189-0.107l0.974-1.515l1.839-0.324l2.703-0.433l2.92-0.541l1.73-1.297l2.163-0.217l3.244-0.324
			c0,0,6.381-1.406,6.813-1.406s4.218-1.406,4.218-1.406l2.812-2.055l1.73-3.136l0.974-3.785l0.107-3.569l2.38-0.648l0.54-1.622
			l3.245-5.516l4.218-2.38l2.487-4.109l1.405-3.785l1.082-2.596l1.622-3.676l1.298-4.326l1.946-3.893l2.163-2.056l1.622-2.163
			l1.081-2.271l0.865-0.432l-1.405-1.947l-1.515-1.73l-1.189-1.297c0,0-1.405-1.406-0.757-2.488
			c0.648-1.081,1.73-2.379,2.163-3.027s1.514-3.353,1.514-3.353l1.298-3.677l1.514-1.406l2.596-2.163c0,0,0.433-1.189-0.107-1.729
			c-0.541-0.541-1.73-1.623-1.73-1.623l-1.623-0.648l-2.92-1.73c0,0-1.189-0.433-1.622-0.541c-0.433-0.107-2.163-0.107-2.163-0.107
			l-7.462,0.216l-1.73-2.812l-3.027-2.271c0,0-1.406-0.973-1.947-1.406c-0.54-0.432-2.379-1.621-2.379-1.621l-2.812-0.434
			l-2.813,0.108l-2.055-2.163l-1.297-1.73l-1.406-1.622l-2.055-0.864c0,0-1.622-1.299-2.055-1.299s-1.082-0.216-1.73,0.108
			c-0.649,0.325-1.082-0.216-1.73,0.541c-0.649,0.757-1.406,0.433-1.839,0.974s-1.838,0.648-1.838,0.648s-1.189-0.865-1.082-1.298
			c0.108-0.433,0-1.73,0-1.73l-0.216-2.595l1.514-0.865l-0.216-1.298l-0.649-0.649l-2.163-0.108l-1.081,0.541l-0.541,1.082
			l-1.946,0.324l-2.055,0.108H418.2l-0.973,0.865l-1.623,0.216c0,0-1.297,0.216-1.729,1.081s-1.839,2.055-1.839,2.055l-2.271,1.839
			l-1.838,1.515l-1.406,0.973l-2.487,1.082l-1.298,0.54l-2.596,0.757l-2.271-1.297l-3.028-0.758l-2.055-1.946l-1.839-1.406
			c0,0-0.757,2.704-0.757,3.136c0,0.434-0.433,1.84-0.433,1.84l-1.73,1.189l-1.298,0.432c0,0-1.514,1.189-1.189,1.623
			c0.325,0.432,1.189,3.461,1.189,3.461l0.649,1.945c0,0,0.433,0.109,0.108,0.649c-0.325,0.54-1.622,2.055-1.622,2.055
			l-1.515,1.298l-1.298-0.107l-0.216,2.703l-4.002,0.432c0,0,0.217,2.813,0.649,3.029c0.433,0.216,1.622,2.162,1.622,2.162
			s1.73,1.947,1.946,2.596c0.217,0.648,0.433,2.813,0.433,2.813s-0.324,0.54-0.54,0.973c-0.217,0.433-1.947,1.947-1.947,1.947
			l0.649,1.838l1.189,1.947l0.216,0.324l-0.973,2.162l-0.217,2.596l-1.622,2.163l-1.946,1.73l-1.298,1.081l-2.271,0.434
			c0,0-0.433-1.406-1.405-1.082c-0.974,0.324-3.245,0.433-3.245,0.433l-2.596-0.865c0,0,0.325-1.298-1.081-1.19
			c-1.406,0.109-4.434,0.325-4.434,0.325l-2.92,0.757c0,0-0.541-0.217-1.406,1.082c-0.865,1.297-1.406,2.486-1.406,2.486
			l-1.622-0.54c0,0-0.757-1.298-1.298-1.298c-0.54,0-1.946-0.324-2.163,0.324c-0.216,0.648-3.353,1.298-4.217,1.514
			c-0.865,0.217-3.245,0-3.245,0s-1.405,0.758-1.405,1.406s-1.515,1.73-1.515,1.73s0.324,0.758-0.107,1.298
			c-0.433,0.54-1.298,0.757-1.298,0.757L338.497,505.986z"/>
	</g>
	<g id="es" transform="translate(-36.05404,-190.90844)">
		<path id="path3928" class="estado" data-estado="es" d="
			M448.946,531.088l1.665,1.731l1.997,1.465c0,0,0.932,0.199,1.664,0.266s0.866,0,1.864,0.066c0.999,0.066,1.731-0.466,2.397-0.398
			c0.665,0.066,1.997,0.665,1.997,0.665l1.065,0.866l0.799,0.732l0.599-1.199c0,0-1.131-1.465-0.332-2.197s1.331-1.598,1.864-1.864
			c0.532-0.267,1.265-1.065,1.598-1.265s1.598-1.731,1.598-1.731s0.399-1.132,0.999-1.665c0.599-0.531,1.331-1.531,1.531-1.863
			c0.199-0.333,0.066-1.266,0.399-1.998s0.532-1.93,0.532-1.93s0.399-1.531,0.467-2.064c0.066-0.533,0-1.266,0.399-1.798
			s1.465-2.197,1.465-2.197s1.265-1.331,1.664-1.798c0.399-0.466-1.198,0.333,0.865-1.332c2.064-1.664,1.731-1.464,2.064-1.73
			c0.333-0.266,0.066-0.799,0.599-1.797c0.533-1,0.6-1.199,0.399-1.732c-0.199-0.531-0.799-0.732-1.265-1.797
			c-0.466-1.065-0.666-1.065-0.799-1.864s0.399-2.53,0.6-3.063c0.199-0.532,1.198-2.397,1.198-2.397l-0.066-0.666l-1.398-0.732
			l-2.397-1.664c0,0-1.331-1.465-1.73-1.531s-1.665-0.066-1.665-0.066s-1.198,0.533-1.132,0.998
			c0.067,0.467-0.932,1.932-0.932,1.932l-1.265,1.465l-1.332,1.531l-1.465,1.863l-2.063,4.861l-0.732,2.662l-0.732,2.131
			l-1.398,2.531l-0.865,2.196l-0.399,1.531l-1.065,1.465l-1.199,2.397c0,0-1.265,1.465-1.464,1.73
			c-0.2,0.266-2.264,1.332-2.264,1.332s-1.998,1.331-2.064,1.93c-0.066,0.6-0.732,1.599-0.999,2.331
			c-0.266,0.732-1.132,1.731-1.132,1.731s-0.732,0.466-0.599,0.865c0.133,0.399,0.666,1.332,0.666,1.332L448.946,531.088z"/>
	</g>
	<g id="rj" transform="translate(-36.05404,-190.90844)">
		<path id="path3925" class="estado" data-estado="rj" d="
			M413.941,550.821l2.407,1.49l2.179,1.146l0.803,1.146l-0.803,1.146l-0.344,1.491l0.917-0.344l4.357,0.344l0.573,0.688c0,0,0.115,0.917,0.803,0.917
			c0.688,0,0.345-0.345,1.721-0.229s1.031-0.573,1.72-0.459c0.688,0.115,0.917,0.115,1.949,0.115s1.835-0.918,1.835-0.918
			l1.72-0.458v-1.835l0.917-2.293l1.376-0.459c0,0,0.459,0.459,0.573,1.262c0.115,0.803-0.229,1.834-0.229,1.834l0.345,1.262
			c0,0,0.229,0.229,1.146,0.344c0.917,0.115,9.976-0.229,9.976-0.229l0.229-3.44c0,0,0.803-1.261,1.605-1.261
			s1.49-1.491,1.49-1.491s0.459-0.688,3.44-1.147c2.981-0.458,3.555-2.521,3.555-2.521l1.949-1.835l0.917-1.376l-1.146-2.179
			c0,0,0.688-1.032,0.803-1.491c0.114-0.458,1.376-3.439,1.376-3.439s-1.72-2.293-2.408-2.293c-0.688,0-2.866,0.114-3.669,0.114
			s-2.752,0.114-3.44-0.344c-0.688-0.459-2.407-1.605-2.407-1.605s-1.147-1.376-1.605-1.376c-0.459,0-2.294,0-2.294,0l-0.573,5.619
			l-1.261,2.866l-0.688,2.063l-2.637,1.491l-3.211,1.491c0,0-2.408,0.803-2.867,0.803c-0.458,0-2.98,0.229-2.98,0.229l-4.357,0.918
			l-3.44-0.115l-1.49,1.605l-4.472,1.031l-3.326,0.344L413.941,550.821z"/>
	</g>
	<g id="sp" transform="translate(-36.05404,-190.90844)">
		<path id="path3922" class="estado" data-estado="sp" d="
			M333.331,518.6l-0.688,2.293l-1.146,1.262l-2.408,1.375l-2.179,0.688l-1.032,1.146c0,0-1.146,1.605-1.032,2.179c0.115,0.573-0.229,2.064-0.229,2.064
			l-1.491,2.063l-1.032,2.407l-1.146,2.18c0,0-1.261,2.063-1.376,2.522c-0.114,0.458-0.803,0.803-0.917,1.376
			c-0.115,0.573-1.491,2.179-1.491,2.179l-1.031,1.949l-0.803,1.376l-1.491,1.146l-1.49,1.376l-1.835,1.261
			c0,0-1.834,0.115-1.834,0.918s-0.573,1.031-0.573,1.031l-0.459,0.918l2.866,0.459c0,0,1.721,0.572,2.294,0.572
			s2.752-1.261,3.21-1.261c0.459,0,2.294-0.917,2.867-0.688c0.573,0.23,4.472,1.721,4.472,1.721s3.898,1.146,5.045,1.376
			c1.147,0.229,1.721,0.229,3.784,1.032c2.064,0.803,3.899,1.262,3.899,1.262l2.293,0.688c0,0,2.637-1.032,3.096-0.688
			c0.459,0.344,2.408,0,2.981,0.344s2.522,0.114,2.866,0.688c0.345,0.573,3.44,1.605,3.44,1.605l1.49,1.834l-0.344,2.18
			c0,0-0.229,1.49,0,1.949c0.229,0.458,0.803,1.49,1.032,1.949s0.114,1.949,0.458,2.521c0.345,0.574,0.229,0.459,0.918,1.836
			c0.688,1.375,1.72,2.178,1.834,2.637c0.115,0.459,0.115,2.752,0.115,3.211s-0.229,1.72-0.229,1.72l1.032,1.491
			c0,0,0.229,0.114,1.261,0.344c1.032,0.229,1.376-0.688,1.835-0.688s1.491-0.802,1.491-0.802l2.522,0.229l0.688,1.721l-0.229,3.21
			l2.179,0.688l1.835-0.344l2.637,1.031l1.605-1.49l1.605-1.605c0,0,0.688-1.605,1.262-1.721c0.573-0.114,2.063-1.49,2.866-1.49
			s2.179-0.918,2.179-0.918s1.376-1.49,2.064-1.49c0.688,0,1.72-1.031,1.72-1.031l1.72-0.803c0,0,1.72-1.605,2.638-1.949
			c0.917-0.344,0.573-0.574,2.063-1.146c1.491-0.574,1.605-1.491,2.064-1.721c0.458-0.229,0.688-1.262,1.49-1.49
			c0.803-0.229,2.522-1.49,2.522-1.49s1.146-1.262,1.721-1.262c0.573,0,1.72,0,1.72,0l1.605,0.229c0,0,0.803,1.721,1.376,1.721
			s1.604-0.688,1.604-0.688l0.574-1.262l1.146-1.262l0.688-0.459l3.44-2.178l3.21-0.459l2.064-1.262l-0.459-1.031l-0.917-1.033
			l0.688-1.031l1.491-0.688c0,0,0.803-0.459,1.262-0.574c0.458-0.114,1.261-0.803,1.261-0.803l0.229-1.49
			c0,0-1.605-1.031-2.064-1.146c-0.458-0.115-2.752-1.032-2.752-1.032l-0.917-0.917h-2.179c0,0-1.146,1.031-1.605,1.376
			c-0.458,0.344-2.866,0.458-2.866,0.458l-1.835,0.918l-1.834,0.459c0,0-0.574-0.23-0.918,0.229s-1.949,1.377-1.949,1.377
			s0.803-0.459-0.459,0.572c-1.261,1.032-3.898,1.377-3.898,1.377l-1.605-0.459l-1.261-1.49l-1.146-2.064l-0.803-1.377l-1.032-1.49
			l-1.146-1.834l-0.459-1.721l-0.344-1.949l-0.688-1.49c0,0,0-0.803,0.574-1.376c0.573-0.573,1.261-1.72,1.261-1.72l1.146-1.949
			l-1.49-1.377l-2.179-0.229l-1.835-0.688l-0.917-1.147l-1.376-1.835l-1.605-3.324l1.146-1.95l-0.344-2.522l-1.032-1.949
			l0.229-1.949c0,0,0-1.032-0.344-1.721c-0.344-0.688-0.803-1.375-0.803-1.375l-1.72-2.064c0,0-0.573,0-1.835,0.115
			c-1.262,0.114-1.949-0.344-2.638,0.229c-0.688,0.574-1.376,1.146-1.376,1.146l-1.146,1.721l-0.803,0.459h-1.949l-3.21-0.115
			l-2.179-0.459c0,0-1.262,0.344-1.032,0.803s-0.573,1.605-0.573,1.605l-2.408-0.229l-0.917,1.261l-2.638,0.114l-0.344-2.178
			c0,0,0.344-1.262,0.573-1.721s0-1.605,0-1.605l-1.49-0.459c0,0-0.345-0.572-1.147-0.688s-2.063-0.115-2.063-0.115l-1.491,0.23
			l-0.229,1.146l-1.262,0.114h-1.72l-3.097-1.032c0,0-1.604-0.459-2.063-0.688c-0.459-0.229-1.49-1.146-1.49-1.146l-1.147,0.229
			l-0.688,0.918l-0.573,0.229l-1.835,0.688l-0.803,0.114l-1.72,0.345L333.331,518.6z"/>
	</g>
	<g id="rs" transform="translate(-36.05404,-190.90844)">
		<path id="path3919" class="estado" data-estado="rs" d="
			M297.714,610.632l2.277-0.133h1.474l1.34,0.401l1.474,0.804c0,0,1.34,0.135,2.145,0.135c0.804,0,1.875,0,2.545,0s3.35,0,3.35,0l1.608,0.133l1.34,0.537l2.144,0.67
			l1.34-0.135l2.68,0.402l2.68,1.742l2.01,0.402l1.34,0.4l1.876,1.207l2.411,2.545l3.082,2.412l1.474,2.01l1.072,2.145l2.144,1.34
			l2.412,1.473h2.947l2.546,0.537c0,0-0.268,1.07-0.268,1.607c0,0.535-1.34,2.813-1.34,2.813l-1.206,2.814l-0.536,2.545
			c0,0,0.402,0.939,0.938,0.939c0.536,0,1.475-0.27,1.475-0.27l1.205,0.402l0.938,0.67l0.268,1.072L343,650.427l-3.617,6.564
			l-4.422,6.564l-4.287,4.422l-1.34,2.145l-2.412,1.205l-2.947,0.402l-2.412,2.277c0,0-2.01,3.082-2.144,3.617
			c-0.134,0.537-1.474,2.01-1.474,2.949c0,0.938-0.536,2.41-0.536,2.947c0,0.535-1.34,4.02-1.34,4.02l-6.029,4.957
			c0,0-1.607,1.205-2.144,1.742c-0.536,0.535-3.618,2.68-3.618,2.68l-1.607,1.607l-1.474-2.412c0,0-0.938-2.143-0.938-2.813
			s-0.134-2.01,0.805-2.547c0.938-0.535,3.483-4.287,3.483-4.287l-0.536-2.947l-3.082-2.68c0,0-2.545-1.607-3.081-2.547
			c-0.536-0.938-2.813-3.35-2.813-3.35l-3.618-3.215l-2.947-2.145l-2.68-2.143l-3.483-1.072l-2.546-1.34l-2.01-2.68
			c0,0-1.474-2.01-2.144-2.145c-0.67-0.133-2.01-0.268-2.01-0.268l-1.34,1.34l-1.072,1.207l-1.742,1.607
			c0,0-1.34,0.402-1.474-0.135c-0.134-0.535-0.536-3.752-0.536-3.752l-0.401-1.875l-1.474-1.475c0,0-1.34-1.473-1.876-1.607
			c-0.536-0.133-1.34-0.803-1.34-0.803l-1.474-1.475l-1.608-1.742c0,0-0.804-0.67-1.474-0.535c-0.67,0.133-1.876,0.268-1.876,0.268
			l-1.876,2.277l-1.474,1.34l-2.144,0.938l-2.277-1.875l-0.135-1.607l3.082-3.752l3.886-3.215l2.68-3.619l1.607-2.01l3.483-2.41
			c0,0,0.135-0.537,0.805-2.01c0.67-1.475,1.206-2.68,1.206-2.68l1.474-1.609l2.813-2.01c0,0,2.813-1.07,3.751-1.07
			c0.938,0,2.145-1.609,2.145-1.609l1.474-2.813l2.01-1.475l2.68-0.67l2.813-0.803l1.072-1.475l1.34-2.01l3.081-1.475l2.412-1.473
			l1.741-1.608l2.278-0.938L297.714,610.632z"/>
	</g>
	<g id="sc" transform="translate(-36.05404,-190.90844)">
		<path id="path3916" class="estado" data-estado="sc" d="
			M363.521,597.005l-1.602,0.084l-2.528,0.252l-2.275,1.265l-2.697-0.337l-1.938,1.264l-2.528-0.927l-1.687-1.349l-2.359-0.843
			l-1.349-0.59h-1.349h-1.518l-1.348,0.506l-1.518,0.927l-3.034,1.265l-1.433,0.843l-1.939,0.843l-1.938,1.349l-1.77,0.758
			l-0.759,1.012l-2.022,0.928l-2.444,0.252h-2.023l-1.264-0.674l-1.686-0.674l-1.265-0.674l-1.518-0.169l-0.758-0.169l-1.265-0.674
			l-0.759-0.506l-0.674-0.422l-1.938-0.252l-1.012,0.084l-1.77,0.168l-2.697,0.084l-1.938-0.59l-2.023-0.252l-1.938-0.254h-0.674
			l-0.506,0.675l-0.843,0.675l0.337,9.945c0,0,4.552-0.422,4.973-0.084c0.422,0.336,1.181,1.264,1.518,1.264s0.084,0,1.18,0
			s3.371,0,3.371,0l2.276,0.084l2.275,0.084c0,0,1.096,0.928,1.77,0.928c0.675,0,2.276,0.084,2.276,0.084s1.011-0.252,2.022-0.168
			s1.686,0,2.107,0.422c0.421,0.42,1.349,1.348,1.686,1.516c0.337,0.17,1.686,0.928,1.686,0.928s2.36,0.338,2.697,0.422
			s1.602,0.758,1.686,1.096s1.854,1.518,1.854,1.854c0,0.338,1.349,0.928,1.854,1.18c0.506,0.254,1.096,0.676,1.602,1.35
			s2.107,1.77,2.107,2.107c0,0.336,0.421,1.854,0.421,1.854l1.349,1.434c0,0,1.518,0.422,1.938,0.758
			c0.422,0.338,2.022,1.264,2.022,1.264l0.844-0.084l3.287,0.084l1.096,0.676l0.168,1.18l-0.59,1.602l-1.012,1.18l-1.011,1.686
			c0,0-0.759,1.18-0.759,1.518c0,0.336-0.273,1.816-0.189,2.154c0.085,0.336-0.194,0.232-0.026,0.906
			c0.169,0.674,1.564-0.363,2.407-0.027c0.843,0.338,1.865,0.857,2.792,1.027c0.927,0.168,1.123-1.158,1.123-1.158l0.805-1.471
			c0,0,0.759-1.854,1.18-2.105c0.422-0.254,0.928-1.35,0.928-1.35l2.444-1.18l1.433-1.264l2.191-1.602c0,0,1.265-1.518,2.107-1.686
			c0.843-0.17,1.854-1.182,1.854-1.182s0.169-2.359,0.338-3.033c0.168-0.674,0.168-6.828,0.168-6.828l-0.253-1.77l-1.096-1.264
			c0,0,0.675-4.467,0.338-5.227c-0.338-0.758-0.506-5.225-0.506-5.225l0.084-1.939l-0.084-1.18c0,0-0.843-0.337-0.928-0.843
			c-0.084-0.505-0.084-1.517-0.084-1.517l1.012-0.338l1.011,0.254l1.012,0.336c0,0,0.422,0.422,0.759,0
			c0.337-0.421,0.759-1.264,0.506-1.602c-0.253-0.336-0.928-1.011-0.928-1.011L363.521,597.005z"/>
	</g>
	<g id="pr" transform="translate(-36.05404,-190.90844)">
		<path id="path3913" class="estado" data-estado="pr" d="
			M290.114,576.399l1.076-1.554l0.238-1.793v-2.032l1.076-1.314c0,0,1.435-2.271,1.913-2.63c0.478-0.358,2.151-2.869,2.151-2.869
			l1.673-2.511l1.196-2.51l1.075-2.629l1.076-1.315l1.912-1.554l3.108-0.837l2.749-0.12c0,0,2.749,0.359,3.467,0.24
			c0.717-0.12,2.988-0.598,2.988-0.598l1.554-1.076h0.957c0,0,3.107,0.836,3.586,0.717c0.478-0.119,2.151,1.076,2.151,1.076
			l2.271,0.358l3.107,0.956l3.825,0.598l1.913,1.076l1.793,0.956l2.271-0.358c0,0,2.868-0.119,3.466,0s3.467,0.238,3.467,0.238
			l2.988,1.195l2.152,0.957c0,0,0.956,1.076,1.195,1.912c0.238,0.838,0.238,1.674,0.238,1.674s-0.358,0.837-0.358,1.674
			c0,0.836-0.239,1.793,0.12,2.271c0.358,0.478,1.912,2.629,2.271,3.467c0.359,0.836,0.598,1.673,1.076,2.391
			c0.479,0.717,1.195,1.434,1.195,2.031s0,1.912-0.239,2.391s-0.598,0.837-0.598,0.837l0.12,2.511l1.434,0.598
			c0,0,1.555,0.479,2.032-0.119c0.479-0.598,0.718-1.315,0.718-1.315l2.391,0.239l1.793,0.598l0.119,1.793v2.031l1.913,1.076
			l2.51-0.119c0,0,1.195,0.479,1.195,0.956s-0.836,3.108-0.836,3.108l-1.555,0.119l-2.151-1.195l-1.435,0.836l-1.554,0.838
			l0.358,0.955l1.674,0.838l1.075,1.195l-0.836,1.195l-1.076,1.554l-0.717,1.793h-1.435l-1.195-0.12l-1.435,0.479l-1.195,0.239
			l-1.793,0.12l-1.195,0.119l-0.957,0.956l-1.435,0.479l-3.228-0.837l-1.075-0.957l-0.837-0.478l-1.554-1.075l-2.032-0.359
			l-2.511,0.119l-1.195,0.718l-2.271,1.315l-1.674,0.717l-2.988,1.674l-1.555,0.717l-2.032,1.314l-1.075,1.195l-2.032,1.076
			l-2.63,0.239h-2.988l-1.554-0.837l-2.869-0.956l-1.913-0.239l-2.271-1.314l-0.718-0.479l-4.9,0.239l-2.511-0.239l-1.912-0.836
			l-1.435-0.479h-2.151l-0.837-1.076l-1.195-1.314c0,0-0.598-0.479-0.358-1.076c0.238-0.598,0.119-2.988,0.119-2.988l-1.195-1.435
			l-1.315-0.956l-0.956-0.119l-1.314,1.075l-1.555-0.239l-1.912-0.238l-1.913-0.838c0,0,0.359-1.314,0.599-1.793
			c0.238-0.478,0.478-2.749,0.478-2.749l1.435-3.586l0.717-1.075l0.598-2.152l0.12-1.314L290.114,576.399z"/>
	</g>
	<text transform="matrix(1 0 0 1 299.2029 427.7651)" class="legenda" id="legenda-sc">SC</text>
	<text transform="matrix(1 0 0 1 260.0857 459.1177)" class="legenda" id="legenda-rs">RS</text>
	<text transform="matrix(1 0 0 1 275.321 391.6177)" class="legenda" id="legenda-pr">PR</text>
	<text transform="matrix(1 0 0 1 316.0261 359.7065)" class="legenda" id="legenda-sp">SP</text>
	<text transform="matrix(1 0 0 1 394.1736 372.5591)" class="legenda" id="legenda-rj">RJ</text>
	<text transform="matrix(1 0 0 1 235.9236 335.8091)" class="legenda" id="legenda-ms">MS</text>
	<text transform="matrix(1 0 0 1 51.1443 202.2944)" class="legenda" id="legenda-ac">AC</text>
	<text transform="matrix(1 0 0 1 112.5266 125.4414)" class="legenda" id="legenda-am">AM</text>
	<text transform="matrix(1 0 0 1 127.4675 212.2061)" class="legenda" id="legenda-ro">RO</text>
	<text transform="matrix(1 0 0 1 328.2039 262.8833)" class="legenda" id="legenda-df">DF</text>
	<text transform="matrix(1 0 0 1 298.908 289.8823)" class="legenda" id="legenda-go">GO</text>
	<text transform="matrix(1 0 0 1 223.8499 239.4121)" class="legenda" id="legenda-mt">MT</text>
	<text transform="matrix(1 0 0 1 260.4675 131.2354)" class="legenda" id="legenda-pa">PA</text>
	<text transform="matrix(1 0 0 1 151.2913 46.353)" class="legenda" id="legenda-rr">RR</text>
	<text transform="matrix(1 0 0 1 274.6736 55.1768)" class="legenda" id="legenda-ap">AP</text>
	<text transform="matrix(1 0 0 1 319.115 214.4121)" class="legenda" id="legenda-to">TO</text>
	<text transform="matrix(1 0 0 1 373.8503 311.4712)" class="legenda" id="legenda-mg">MG</text>
	<text transform="matrix(1 0 0 1 405.4675 232.353)" class="legenda" id="legenda-ba">BA</text>
	<text transform="matrix(1 0 0 1 471.3406 215.8926)" class="legenda" id="legenda-se">SE</text>
	<text transform="matrix(1 0 0 1 485.3406 199.2256)" class="legenda" id="legenda-al">AL</text>
	<text transform="matrix(1 0 0 1 393.6736 177.5591)" class="legenda" id="legenda-pi">PI</text>
	<text transform="matrix(1 0 0 1 359.3406 145.8926)" class="legenda" id="legenda-ma">MA</text>
	<text transform="matrix(1 0 0 1 433.6736 140.5591)" class="legenda" id="legenda-ce">CE</text>
	<text transform="matrix(1 0 0 1 472.6736 148.2256)" class="legenda" id="legenda-rn">RN</text>
	<text transform="matrix(1 0 0 1 486.0076 164.8926)" class="legenda" id="legenda-pb">PB</text>
	<text transform="matrix(1 0 0 1 461.0076 183.5591)" class="legenda" id="legenda-pe">PE</text>
	<text transform="matrix(1 0 0 1 427.0076 332.8921)" class="legenda" id="legenda-es">ES</text>
</svg>
